<svg viewBox="0 0 800 600" xmlns="http://www.w3.org/2000/svg"><path d="m0 0h800v600h-800z" fill="#f3f4f6"/><path d="m0 0h800v70h-800z" fill="#fff"/><path d="m0 70h800v2h-800z" fill="#e5e7eb"/><g font-family="Arial"><text fill="#2563eb" font-size="20" font-weight="bold" x="40" y="43">MindVault</text><text fill="#374151" font-size="14" x="330" y="43">Dashboard</text><text fill="#6b7280" font-size="14" x="430" y="43">Create Flashcard</text><text fill="#6b7280" font-size="14" x="560" y="43">AI Chat</text></g><circle cx="730" cy="35" fill="#3b82f6" r="18"/><text fill="#fff" font-family="Arial" font-size="14" text-anchor="middle" x="730" y="41">A</text><path d="m40 100h720v480h-720z" fill="#f3f4f6"/><text fill="#1f2937" font-family="Arial" font-size="24" font-weight="bold" x="40" y="130">My Flashcards</text><rect fill="#2563eb" height="35" rx="6" width="120" x="640" y="110"/><text fill="#fff" font-family="Arial" font-size="14" text-anchor="middle" x="700" y="133">+ Create New</text><rect fill="#fff" height="70" rx="8" width="720" x="40" y="150"/><text fill="#1f2937" font-family="Arial" font-size="14" font-weight="bold" x="70" y="185">Total Cards: 24</text><text fill="#1f2937" font-family="Arial" font-size="14" font-weight="bold" x="240" y="185">Sets: 5</text><text fill="#1f2937" font-family="Arial" font-size="14" font-weight="bold" x="370" y="185">Study Streak: 3 days</text><text fill="#6b7280" font-family="Arial" font-size="14" x="600" y="185">Last studied: Today</text><rect fill="#fff" height="40" rx="6" width="300" x="40" y="240"/><text fill="#9ca3af" font-family="Arial" font-size="14" x="70" y="265">Search flashcards...</text><rect fill="#fff" height="40" rx="6" width="120" x="360" y="240"/><text fill="#6b7280" font-family="Arial" font-size="14" text-anchor="middle" x="400" y="265">Filter</text><rect fill="#fff" height="40" rx="6" width="120" x="500" y="240"/><text fill="#6b7280" font-family="Arial" font-size="14" text-anchor="middle" x="540" y="265">Sort By</text><rect fill="#fff" height="180" rx="8" width="220" x="40" y="300"/><text fill="#1f2937" font-family="Arial" font-size="16" font-weight="bold" x="60" y="330">JavaScript</text><text fill="#6b7280" font-family="Arial" font-size="12" x="60" y="355">8 cards</text><text fill="#6b7280" font-family="Arial" font-size="12" x="170" y="355">Feb 15</text><rect fill="#e5e7eb" height="8" rx="4" width="180" x="60" y="370"/><rect fill="#3b82f6" height="8" rx="4" width="90" x="60" y="370"/><rect fill="#2563eb" height="35" rx="6" width="85" x="60" y="395"/><text fill="#fff" font-family="Arial" font-size="14" text-anchor="middle" x="102" y="417">Study</text><rect fill="#f3f4f6" height="35" rx="6" width="85" x="155" y="395"/><text fill="#374151" font-family="Arial" font-size="14" text-anchor="middle" x="197" y="417">View</text><rect fill="#fff" height="180" rx="8" width="220" x="280" y="300"/><text fill="#1f2937" font-family="Arial" font-size="16" font-weight="bold" x="300" y="330">React</text><text fill="#6b7280" font-family="Arial" font-size="12" x="300" y="355">12 cards</text><text fill="#6b7280" font-family="Arial" font-size="12" x="410" y="355">Today</text><rect fill="#e5e7eb" height="8" rx="4" width="180" x="300" y="370"/><rect fill="#3b82f6" height="8" rx="4" width="140" x="300" y="370"/><rect fill="#2563eb" height="35" rx="6" width="85" x="300" y="395"/><text fill="#fff" font-family="Arial" font-size="14" text-anchor="middle" x="342" y="417">Study</text><rect fill="#f3f4f6" height="35" rx="6" width="85" x="395" y="395"/><text fill="#374151" font-family="Arial" font-size="14" text-anchor="middle" x="437" y="417">View</text><rect fill="#fff" height="180" rx="8" width="220" x="520" y="300"/><text fill="#1f2937" font-family="Arial" font-size="16" font-weight="bold" x="540" y="330">Firebase</text><text fill="#6b7280" font-family="Arial" font-size="12" x="540" y="355">4 cards</text><text fill="#6b7280" font-family="Arial" font-size="12" x="650" y="355">Yesterday</text><rect fill="#e5e7eb" height="8" rx="4" width="180" x="540" y="370"/><rect fill="#3b82f6" height="8" rx="4" width="60" x="540" y="370"/><rect fill="#2563eb" height="35" rx="6" width="85" x="540" y="395"/><text fill="#fff" font-family="Arial" font-size="14" text-anchor="middle" x="582" y="417">Study</text><rect fill="#f3f4f6" height="35" rx="6" width="85" x="635" y="395"/><text fill="#374151" font-family="Arial" font-size="14" text-anchor="middle" x="677" y="417">View</text><rect fill="#fff" height="180" rx="8" width="220" x="40" y="500"/><text fill="#1f2937" font-family="Arial" font-size="16" font-weight="bold" x="60" y="530">CSS/Tailwind</text><text fill="#6b7280" font-family="Arial" font-size="12" x="60" y="555">7 cards</text><text fill="#6b7280" font-family="Arial" font-size="12" x="170" y="555">Feb 20</text><rect fill="#e5e7eb" height="8" rx="4" width="180" x="60" y="570"/><rect fill="#3b82f6" height="8" rx="4" width="100" x="60" y="570"/></svg>