<svg xmlns="http://www.w3.org/2000/svg" xmlns:xlink="http://www.w3.org/1999/xlink" zoomAndPan="magnify" preserveAspectRatio="xMidYMid meet" version="1.0" viewBox="190 370 55 49"><defs><clipPath id="eeb1dfa70c"><path d="M 190 370 L 245 370 L 245 419 L 190 419 Z M 190 370 " clip-rule="nonzero"/></clipPath><clipPath id="17e0a19925"><path d="M 211.359375 375.738281 C 213.042969 375.738281 214.621094 376.148438 216.011719 376.882812 L 217.996094 377.914062 L 220.0625 377.019531 C 221.042969 376.609375 222.105469 376.363281 223.246094 376.363281 C 225.96875 376.363281 228.363281 377.699219 229.777344 379.738281 L 230.539062 380.855469 L 231.816406 381.371094 C 234.046875 382.269531 235.597656 384.363281 235.652344 386.8125 L 235.679688 388.769531 L 237.203125 390.050781 C 238.59375 391.21875 239.4375 392.933594 239.4375 394.839844 C 239.4375 398.347656 236.496094 401.175781 232.878906 401.203125 L 223.980469 401.203125 C 222.648438 401.203125 221.398438 401.722656 220.445312 402.621094 L 216.335938 406.566406 L 216.417969 406.566406 L 215.167969 407.789062 C 214.785156 407.707031 214.378906 407.652344 213.96875 407.652344 C 210.839844 407.652344 208.339844 410.101562 208.339844 413.09375 C 208.339844 416.113281 210.867188 418.535156 213.96875 418.535156 C 217.097656 418.535156 219.601562 416.085938 219.601562 413.09375 C 219.601562 412.46875 219.492188 411.871094 219.300781 411.324219 L 223.980469 406.753906 C 224.117188 406.617188 224.28125 406.566406 224.472656 406.566406 L 233.503906 406.539062 L 233.859375 406.539062 C 240.089844 406.046875 244.984375 401.015625 244.984375 394.867188 C 244.984375 391.519531 243.515625 388.472656 241.175781 386.351562 C 240.933594 381.996094 238.15625 378.296875 234.238281 376.582031 C 231.816406 373.234375 227.816406 371.03125 223.273438 371.03125 C 221.507812 371.03125 219.820312 371.359375 218.269531 371.984375 C 216.199219 370.976562 213.859375 370.40625 211.386719 370.40625 C 203.957031 370.40625 197.78125 375.496094 196.367188 382.269531 C 192.722656 384.664062 190.328125 388.691406 190.328125 393.261719 C 190.328125 400.335938 196.039062 406.101562 203.277344 406.511719 L 203.277344 406.539062 L 208.527344 406.539062 C 209.863281 406.539062 211.113281 406.019531 212.066406 405.121094 L 215.546875 401.804688 L 219.65625 397.777344 C 220.089844 397.886719 220.554688 397.941406 221.015625 397.941406 C 224.144531 397.941406 226.648438 395.492188 226.648438 392.5 C 226.648438 389.507812 224.117188 387.058594 221.015625 387.058594 C 217.886719 387.058594 215.382812 389.507812 215.382812 392.5 C 215.382812 393.070312 215.464844 393.613281 215.628906 394.105469 L 208.609375 400.988281 C 208.472656 401.125 208.3125 401.175781 208.121094 401.175781 L 204.203125 401.175781 C 204.175781 401.175781 204.148438 401.175781 204.121094 401.175781 C 199.578125 401.175781 195.90625 397.613281 195.90625 393.234375 C 195.90625 390.402344 197.429688 387.929688 199.742188 386.511719 L 201.453125 385.453125 L 201.808594 383.519531 C 202.488281 379.113281 206.515625 375.738281 211.359375 375.738281 Z M 211.359375 375.738281 " clip-rule="evenodd"/></clipPath></defs><g clip-path="url(#eeb1dfa70c)"><g clip-path="url(#17e0a19925)"><path fill="#ad46ff" d="M 190.328125 418.535156 L 190.328125 370.40625 L 244.984375 370.40625 L 244.984375 418.535156 Z M 190.328125 418.535156 " fill-opacity="1" fill-rule="nonzero"/></g></g></svg>